<?xml version="1.0" encoding="UTF-8" standalone="no"?>
<!-- Generator: Adobe Illustrator 19.1.0, SVG Export Plug-In . SVG Version: 6.00 Build 0)  -->
<svg id="Layer_1" style="enable-background:new -284 328.5 113.4 113.4" xmlns="http://www.w3.org/2000/svg" xml:space="preserve" viewBox="-284 328.5 113.4 113.4" version="1.1" y="0px" x="0px" xmlns:xlink="http://www.w3.org/1999/xlink">
<style type="text/css">
	.st0{fill:#FFFFFF;}
</style>
	<path class="st0" d="m-187.2 345.1c-10.7-10.7-24.9-16.6-40.1-16.6-15.1 0-29.4 5.9-40.1 16.6-10.7 10.8-16.6 25-16.6 40.1s5.9 29.4 16.6 40.1 24.9 16.6 40.1 16.6c15.1 0 29.4-5.9 40.1-16.6s16.6-24.9 16.6-40.1c0-15.1-5.9-29.3-16.6-40.1zm-6.1 79.8c0 0.8-0.6 1.4-1.4 1.4h-65.2c-0.8 0-1.4-0.6-1.4-1.4v-79.4c0-0.8 0.6-1.4 1.4-1.4h65.2c0.8 0 1.4 0.6 1.4 1.4v79.4zm-5.6-61.6h-56.7v-7.1h56.7v7.1zm0 14.1h-56.7v-7.1h56.7v7.1zm0 14.2h-56.7v-7.1h56.7v7.1zm-19.9 14.2h-36.9v-7.1h36.9v7.1z"/>
</svg>
