<?xml version="1.0" encoding="UTF-8" standalone="no"?>
<!-- Created with Inkscape (http://www.inkscape.org/) -->
<svg id="svg4673" xmlns:rdf="http://www.w3.org/1999/02/22-rdf-syntax-ns#" xmlns="http://www.w3.org/2000/svg" height="340" width="410" version="1.1" xmlns:cc="http://creativecommons.org/ns#" xmlns:dc="http://purl.org/dc/elements/1.1/" viewBox="0 0 410 340">
 <metadata id="metadata4670">
  <rdf:RDF>
   <cc:Work rdf:about="">
    <dc:format>image/svg+xml</dc:format>
    <dc:type rdf:resource="http://purl.org/dc/dcmitype/StillImage"/>
    <dc:title/>
   </cc:Work>
  </rdf:RDF>
 </metadata>
 <g id="layer1" transform="translate(0 -258.52)">
  <path id="path4336" style="color:#000000" d="m162.51 539.02h85.037v25.141c0 25.394 9.0266 25.394 25.952 25.394v8.4647h-137v-8.4647c16.925 0 26.011 0 26.011-25.394z" stroke="#fff" fill="none"/>
  <path id="path5264" style="color-rendering:auto;text-decoration-color:#000000;color:#000000;font-variant-numeric:normal;shape-rendering:auto;font-variant-ligatures:normal;text-decoration-line:none;font-variant-position:normal;mix-blend-mode:normal;solid-color:#000000;font-feature-settings:normal;shape-padding:0;font-variant-alternates:normal;text-indent:0;font-variant-caps:normal;image-rendering:auto;white-space:normal;text-decoration-style:solid;text-orientation:mixed;isolation:auto;text-transform:none" d="m32.453 259.02c-25.563 0-31.953 6.3835-31.953 31.917v216.12c-0.00018 25.54 6.3906 31.92 31.953 31.92h345.1c25.563 0 31.953-6.3835 31.953-31.917v-216.12c0-25.533-6.3883-31.917-31.922-31.917z" stroke="#fff" fill="none"/>
  <path id="path4338" style="color-rendering:auto;text-decoration-color:#000000;color:#000000;font-variant-numeric:normal;shape-rendering:auto;font-variant-ligatures:normal;text-decoration-line:none;font-variant-position:normal;mix-blend-mode:normal;solid-color:#000000;font-feature-settings:normal;shape-padding:0;font-variant-alternates:normal;text-indent:0;font-variant-caps:normal;image-rendering:auto;white-space:normal;text-decoration-style:solid;text-orientation:mixed;isolation:auto;text-transform:none" d="m16.5 275.02h377v223h-377z" stroke="#fff" fill="none"/>
  <path id="path3" d="m205 61.002c-37 0-67 29.995-67 66.998 0 37 30 67 67 67s67-30 67-67c0-37.003-30-66.998-67-66.998zm23.02 18.6c1.44 0.037 2.89 0.424 4.23 1.195 4.28 2.471 5.74 7.94 3.27 12.219-2.47 4.278-7.93 5.742-12.21 3.271-4.28-2.468-5.74-7.937-3.28-12.213 1.7-2.941 4.82-4.554 7.99-4.472zm-23.02 9.539c3.6 0 7.07 0.499 10.38 1.412 0.58 3.594 2.72 6.906 6.12 8.869 3.39 1.958 7.32 2.158 10.72 0.868 6.62 6.51 10.92 15.35 11.55 25.2l-12.75 0.19c-1.17-13.34-12.37-23.81-26.02-23.81-3.93 0-7.66 0.87-11.01 2.43l-6.21-11.138c5.19-2.569 11.04-4.021 17.22-4.021zm-21.56 6.527l6.54 10.952c-6.72 4.73-11.11 12.54-11.11 21.38s4.39 16.65 11.11 21.38l-6.54 10.95c-7.83-5.23-13.65-13.22-16.07-22.59 2.83-2.3 4.63-5.81 4.63-9.74s-1.8-7.44-4.63-9.74c2.42-9.37 8.25-17.36 16.07-22.592zm-24 23.382c4.94 0 8.95 4.01 8.95 8.95s-4.01 8.95-8.95 8.95-8.94-4.01-8.94-8.95 4-8.95 8.94-8.95zm71.58 11.27l12.75 0.18c-0.63 9.86-4.93 18.7-11.55 25.21-3.4-1.29-7.32-1.09-10.72 0.87s-5.53 5.27-6.12 8.87c-3.3 0.91-6.78 1.41-10.38 1.41-6.18 0-12.03-1.45-17.22-4.02l6.21-11.14c3.35 1.55 7.08 2.43 11.01 2.43 13.65 0 24.85-10.46 26.02-23.81zm-3.48 28.19c3.17-0.08 6.29 1.53 7.99 4.47 2.47 4.28 1 9.75-3.28 12.22s-9.74 1-12.21-3.28c-2.47-4.27-1.01-9.74 3.27-12.21 1.34-0.77 2.79-1.16 4.23-1.2z" transform="translate(0 258.52)" stroke-width="2.9398" fill="#fff"/>
 </g>
</svg>
